<svg width="32" height="32" viewBox="0 0 32 32" xmlns="http://www.w3.org/2000/svg">
  <style>
    @media (prefers-color-scheme: dark) {
     .a { fill: #f0f0f0 }
    }
  </style>
<path fill="#0f0f0f" class="a" d="M6.66634 25.3337C6.02467 25.3337 5.47537 25.1052 5.01842 24.6482C4.56148 24.1913 4.33301 23.642 4.33301 23.0003V9.00033C4.33301 8.35866 4.56148 7.80935 5.01842 7.35241C5.47537 6.89546 6.02467 6.66699 6.66634 6.66699H13.6663L15.9997 9.00033H25.333C25.9747 9.00033 26.524 9.2288 26.9809 9.68574C27.4379 10.1427 27.6663 10.692 27.6663 11.3337H15.0372L12.7038 9.00033H6.66634V23.0003L9.46634 13.667H29.4163L26.4122 23.6712C26.2566 24.1767 25.9698 24.5802 25.5518 24.8816C25.1337 25.183 24.6719 25.3337 24.1663 25.3337H6.66634ZM9.11634 23.0003H24.1663L26.2663 16.0003H11.2163L9.11634 23.0003Z"/>
</svg>
